Coordinates
version=1
nRows=9
nColumns=24
inDegrees=yes

Units are S.I. units (second, meters, Newtons, ...)
Angles are in degrees.

endheader
time	pelvis_tilt	pelvis_list	pelvis_rotation	pelvis_tx	pelvis_ty	pelvis_tz	hip_flexion_r	hip_adduction_r	hip_rotation_r	knee_angle_r	ankle_angle_r	subtalar_angle_r	mtp_angle_r	hip_flexion_l	hip_adduction_l	hip_rotation_l	knee_angle_l	ankle_angle_l	subtalar_angle_l	mtp_angle_l	lumbar_extension	lumbar_bending	lumbar_rotation
      0.56300000	     -3.03870116	      1.51709032	      7.86055091	     -0.80450935	      0.88829317	      0.34642364	     29.11273578	     -1.60583265	    -11.20396170	     -7.39259328	      6.61331311	      5.50267021	      7.22147844	    -14.80813339	      3.13322333	      5.93456767	     -7.60492135	     15.94644119	     -0.59762879	      5.48451135	     -5.64830152	     -2.40370348	    -11.16617354
      0.56716667	     -3.11648255	      1.51080612	      7.88776759	     -0.79880882	      0.88719947	      0.34669783	     29.25365632	     -1.50785868	    -11.00782526	     -7.73415355	      6.49460412	      5.55117134	      7.22464713	    -14.74571504	      3.04871412	      5.74418756	     -8.37957853	     16.19502960	     -0.09208377	      5.58733237	     -5.54655698	     -2.34647034	    -11.14448309
      0.57133333	     -3.14228803	      1.48763509	      7.89030368	     -0.79300265	      0.88622048	      0.34701021	     29.32879217	     -1.37292155	    -10.78927270	     -8.13590521	      6.35788249	      5.54626985	      7.25411374	    -14.75945448	      2.93851422	      5.52649224	     -9.11539366	     16.32844745	      0.38504433	      5.73261561	     -5.49840202	     -2.26674457	    -11.15255026
      0.57550000	     -3.18015759	      1.46132647	      7.89397760	     -0.78716550	      0.88527279	      0.34732167	     29.41816105	     -1.23839048	    -10.56749073	     -8.60875402	      6.15201615	      5.45778410	      7.30250361	    -14.74310583	      2.82905169	      5.35709465	     -9.87908828	     16.41572169	      0.78251523	      5.90476903	     -5.42298716	     -2.18267035	    -11.12556879
      0.57966667	     -3.21485836	      1.42647183	      7.87749049	     -0.78126718	      0.88435093	      0.34767110	     29.51082095	     -1.08531783	    -10.32020480	     -9.15387169	      5.90257714	      5.29777776	      7.37330445	    -14.71673190	      2.70870204	      5.13439316	    -10.67700797	     16.46563364	      1.23282658	      6.11982843	     -5.34211833	     -2.08887705	    -11.07764374
      0.58383333	     -3.21122247	      1.35227685	      7.86478079	     -0.77527904	      0.88353128	      0.34803119	     29.55374772	     -0.88857061	    -10.10778936	     -9.73901291	      5.61630472	      5.02608094	      7.51865310	    -14.70193588	      2.52859466	      4.84376383	    -11.52566868	     16.49032443	      1.81294824	      6.53110127	     -5.27747490	     -1.92474007	    -11.00947163
      0.58800000	     -3.24832169	      1.29997796	      7.83779688	     -0.76929397	      0.88268856	      0.34840745	     29.65540746	     -0.71404119	     -9.83861557	    -10.39601944	      5.27342094	      4.69711291	      7.67030916	    -14.62783281	      2.38910816	      4.62129694	    -12.41651640	     16.45854260	      2.22141423	      6.96742185	     -5.17739246	     -1.80684072	    -10.91794431
      0.59216667	     -3.24526049	      1.21838537	      7.79916586	     -0.76324127	      0.88194194	      0.34882523	     29.69782256	     -0.49476284	     -9.55672030	    -11.05027045	      4.85898403	      4.30136151	      7.90554532	    -14.56876382	      2.20231280	      4.30854679	    -13.36042088	     16.43958955	      2.75789293	      7.65314232	     -5.12583148	     -1.65326003	    -10.80284916
      0.59633333	     -3.29046352	      1.16594204	      7.74944141	     -0.75717670	      0.88116791	      0.34922801	     29.82516107	     -0.31496008	     -9.26530231	    -11.81190159	      4.43581532	      3.85248611	      8.09348570	    -14.45135067	      2.06920661	      4.09058858	    -14.31767025	     16.31503162	      3.10430381	      8.24539106	     -4.99687664	     -1.53149897	    -10.67755259
